<?xml version="1.0" encoding="utf-8"?>
<!-- Generator: Adobe Illustrator 26.0.2, SVG Export Plug-In . SVG Version: 6.00 Build 0)  -->
<svg version="1.1" id="Layer_1" xmlns="http://www.w3.org/2000/svg" xmlns:xlink="http://www.w3.org/1999/xlink" x="0px" y="0px"
	 viewBox="0 0 1080 1080" style="enable-background:new 0 0 1080 1080;" xml:space="preserve">
<style type="text/css">
	.st0{fill:#808080;}
</style>
<path class="st0" d="M540,0C241.8,0,0,241.8,0,540s241.8,540,540,540s540-241.8,540-540S838.2,0,540,0z M540,960
	c-232,0-420-188-420-420s188-420,420-420s420,188,420,420S772,960,540,960z"/>
<path class="st0" d="M540,720c-99.4,0-180-80.6-180-180s80.6-180,180-180c78.4,0,145,50.1,169.8,120H834
	c-27.8-136.9-148.8-240-294-240c-165.7,0-300,134.3-300,300s134.3,300,300,300c145.1,0,266.2-103.1,294-240H709.8
	C685,669.9,618.4,720,540,720z"/>
</svg>
