<?xml version="1.0" encoding="utf-8"?>
<!-- Generator: Adobe Illustrator 26.0.2, SVG Export Plug-In . SVG Version: 6.00 Build 0)  -->
<svg version="1.1" id="Layer_1" xmlns="http://www.w3.org/2000/svg" xmlns:xlink="http://www.w3.org/1999/xlink" x="0px" y="0px"
	 viewBox="0 0 1080 1080" style="enable-background:new 0 0 1080 1080;" xml:space="preserve">
<style type="text/css">
	.st0{fill:#808080;}
</style>
<g>
	<path class="st0" d="M1051.8,369.12l-480-300c-19.46-12.16-44.14-12.16-63.6,0l-480,300C10.66,380.08,0,399.31,0,420
		s10.66,39.92,28.2,50.88l480,300c9.73,6.08,20.76,9.12,31.8,9.12s22.07-3.04,31.8-9.12L960,528.25V960c0,33.14,26.86,60,60,60h0
		c33.14,0,60-26.86,60-60V420C1080,399.31,1069.34,380.08,1051.8,369.12z"/>
	<path class="st0" d="M540,840c-22.51,0-44.51-6.31-63.6-18.24L180,636.51v169.25l328.2,205.13c9.73,6.08,20.76,9.12,31.8,9.12
		s22.07-3.04,31.8-9.12L900,805.75V636.51L603.6,821.76C584.51,833.69,562.52,840,540,840z"/>
</g>
</svg>
