<?xml version="1.0" encoding="utf-8"?>
<!-- Generator: Adobe Illustrator 26.0.2, SVG Export Plug-In . SVG Version: 6.00 Build 0)  -->
<svg version="1.1" id="Layer_1" xmlns="http://www.w3.org/2000/svg" xmlns:xlink="http://www.w3.org/1999/xlink" x="0px" y="0px"
	 viewBox="0 0 1080 1080" style="enable-background:new 0 0 1080 1080;" xml:space="preserve">
<style type="text/css">
	.st0{fill:#808080;}
</style>
<circle class="st0" cx="480" cy="420" r="280"/>
<path class="st0" d="M840.48,672.34C890.59,600.9,920,513.88,920,420s-29.41-180.9-79.52-252.34l-65.54,45.88
	C815.94,271.99,840,343.19,840,420s-24.06,148.01-65.06,206.46L840.48,672.34z"/>
<path class="st0" d="M971.57,75.9l-65.54,45.88C965.25,206.21,1000,309.05,1000,420s-34.75,213.79-93.97,298.22l65.54,45.88
	C1039.9,666.68,1080,548.02,1080,420S1039.9,173.32,971.57,75.9z"/>
<path class="st0" d="M900,1080c33.14,0,60-26.86,60-60c0-154.64-214.9-280-480-280S0,865.36,0,1020c0,33.14,26.86,60,60,60H900z"/>
</svg>
